<?xml version="1.0" encoding="utf-8"?>
<!-- Generator: Adobe Illustrator 27.9.2, SVG Export Plug-In . SVG Version: 6.00 Build 0)  -->
<svg version="1.1" id="Ebene_1" xmlns="http://www.w3.org/2000/svg" xmlns:xlink="http://www.w3.org/1999/xlink" x="0px" y="0px"
	 viewBox="0 0 1000 1000" style="enable-background:new 0 0 1000 1000;" xml:space="preserve">
<style type="text/css">
	.st0{display:none;}
	.st1{fill:#004191;}
	.st2{fill:#323232;}
	.st3{fill:#FFFFFF;}
</style>
<g id="Ebene_1_00000060018771545952153730000002813579791405737859_" class="st0">
	
		<image style="display:inline;overflow:visible;enable-background:new    ;" width="1080" height="1080" id="XMLID_2_" xlink:href="DC27B3F1.png"  transform="matrix(0.9259 0 0 0.9259 0 0)">
	</image>
</g>
<g id="Ebene_2_00000016791040429557382250000016573496598323764134_">
	<circle id="XMLID_1_" class="st1" cx="398.5" cy="501.2" r="341.8"/>
	<circle id="XMLID_7_" class="st2" cx="598.5" cy="501.2" r="341.8"/>
</g>
<g id="Ebene_3">
	<g id="XMLID_9_">
		<path id="XMLID_11_" class="st3" d="M471.6,286.5L597,663.7l132-377.2h61.8L628.1,727.9h-67.3L403.7,286.5H471.6z"/>
	</g>
</g>
<g id="Ebene_5">
	<path id="XMLID_10_" class="st3" d="M500.3,643.5c-24.4,15-53.1,23.7-83.8,23.7c-88.4,0-160.1-71.7-160.1-160.1
		c0-81.2,60.5-148.3,138.9-158.7l-19.8-55.6C276,312.1,200.9,400.7,200.9,507c0,120.6,96.5,218.3,215.5,218.3
		c37.5,0,72.8-9.7,103.5-26.8L500.3,643.5z"/>
</g>
</svg>
