<?xml version="1.0" encoding="UTF-8" standalone="no"?>
<!-- Generator: Adobe Illustrator 16.0.0, SVG Export Plug-In . SVG Version: 6.00 Build 0)  -->

<svg
   version="1.1"
   id="Ebene_1"
   x="0px"
   y="0px"
   width="626.4942"
   height="458.24298"
   viewBox="0 0 626.49423 458.243"
   enable-background="new 0 0 626.457 283.464"
   xml:space="preserve"
   xmlns="http://www.w3.org/2000/svg"
   xmlns:svg="http://www.w3.org/2000/svg"
   xmlns:rdf="http://www.w3.org/1999/02/22-rdf-syntax-ns#"
   xmlns:cc="http://creativecommons.org/ns#"
   xmlns:dc="http://purl.org/dc/elements/1.1/"><metadata
   id="metadata31"><rdf:RDF><cc:Work
       rdf:about=""><dc:format>image/svg+xml</dc:format><dc:type
         rdf:resource="http://purl.org/dc/dcmitype/StillImage" /></cc:Work></rdf:RDF></metadata><defs
   id="defs29"><rect
     x="-99.715229"
     y="-48.915652"
     width="812.33441"
     height="628.02961"
     id="rect285" /></defs><g
   id="g4505"
   transform="translate(0.03522564,-342.99298)"><g
     transform="translate(0,342.99298)"
     id="g6"><path
       style="fill:#3f454d"
       id="path2"
       d="m 37.518,112.968 c 3.509,3.514 7.383,6.746 11.615,9.702 1.82,-7.403 5.498,-14.07 10.517,-19.482 -1.549,-1.213 -3.026,-2.466 -4.415,-3.767 C 50.923,95.395 47.522,90.739 45.022,85.455 42.52,80.18 41.269,73.927 41.269,66.697 c 0,-8.337 1.669,-15.489 5.002,-21.468 3.335,-5.973 7.713,-10.838 13.132,-14.591 5.42,-3.751 11.601,-6.461 18.551,-8.127 6.941,-1.668 13.892,-2.502 20.842,-2.502 13.341,0 25.702,2.99 37.101,8.962 11.393,5.979 21.118,14.941 29.181,26.887 l 15.84,-12.09 C 172.302,30.709 160.973,20.15 146.943,12.087 132.907,4.031 116.721,0 98.377,0 87.542,0 77.328,1.531 67.74,4.584 58.152,7.646 49.743,12.088 42.519,17.925 35.289,23.76 29.524,30.848 25.22,39.185 c -4.312,8.337 -6.462,17.925 -6.462,28.764 0,10.003 1.732,18.623 5.211,25.844 3.471,7.229 7.986,13.62 13.549,19.175 z" /><path
       style="fill:#3f454d"
       id="path4"
       d="m 179.875,185.502 c -2.917,-7.223 -7.086,-13.756 -12.505,-19.592 -5.42,-5.836 -12.024,-11.257 -19.801,-16.258 -3.777,-2.428 -7.821,-4.82 -12.12,-7.182 -1.546,7.333 -4.908,13.993 -9.589,19.496 2.26,1.253 4.431,2.498 6.494,3.735 6.253,3.752 11.528,7.713 15.841,11.881 4.307,4.17 7.569,8.963 9.795,14.383 2.222,5.416 3.335,11.742 3.335,18.965 0,8.338 -1.601,15.705 -4.794,22.094 -3.198,6.396 -7.574,11.816 -13.131,16.258 -5.562,4.449 -12.16,7.855 -19.801,10.213 -7.646,2.365 -15.913,3.543 -24.804,3.543 -18.902,0 -35.16,-4.793 -48.772,-14.381 C 36.402,239.069 25.148,227.19 16.258,213.014 L 0,225.104 c 10.559,17.789 24.243,31.961 41.061,42.521 16.812,10.564 36.057,15.84 57.734,15.84 11.946,0 23.137,-1.738 33.558,-5.213 10.421,-3.469 19.521,-8.4 27.305,-14.797 7.777,-6.391 13.822,-14.029 18.133,-22.928 4.306,-8.891 6.462,-18.895 6.462,-30.014 0,-9.444 -1.459,-17.78 -4.378,-25.011 z" /></g><g
     transform="translate(0,342.99298)"
     id="g10"><path
       style="clip-rule:evenodd;fill:#00beff;fill-opacity:1;fill-rule:evenodd"
       id="path8"
       d="m 116.221,133.287 c 0,13.312 -10.782,24.099 -24.09,24.099 -13.32,0 -24.099,-10.787 -24.099,-24.099 0,-13.312 10.778,-24.09 24.099,-24.09 13.308,-0.001 24.09,10.778 24.09,24.09 z" /></g><g
     transform="translate(0,342.99298)"
     id="g16"><path
       style="fill:#3f454d"
       id="path12"
       d="m 385.811,88.99 c 7.136,0 13.87,1.696 19.839,4.693 0.044,-0.108 0.084,-0.219 0.128,-0.327 5.971,-14.724 14.305,-27.506 25.006,-38.342 10.693,-10.836 23.266,-19.379 37.719,-25.63 14.441,-6.254 30.143,-9.378 47.092,-9.378 20.008,0 38.064,4.375 54.18,13.128 16.113,8.752 29.594,20.629 40.426,35.633 l 16.258,-12.92 C 614.23,38.904 598.533,25.358 579.361,15.213 560.188,5.073 538.793,0 515.178,0 c -19.729,0 -38.133,3.614 -55.221,10.834 -17.088,7.229 -31.955,17.16 -44.594,29.8 -12.648,12.647 -22.65,27.651 -30.01,45.012 -0.477,1.125 -0.937,2.255 -1.382,3.39 0.612,-0.025 1.223,-0.046 1.84,-0.046 z" /><path
       style="fill:#3f454d"
       id="path14"
       d="m 569.774,250.059 c -16.115,8.617 -34.172,12.92 -54.18,12.92 -16.949,0 -32.65,-3.125 -47.092,-9.375 -14.453,-6.252 -27.025,-14.797 -37.719,-25.633 -10.701,-10.836 -19.035,-23.686 -25.006,-38.551 -1.903,-4.731 -3.501,-9.585 -4.797,-14.558 -4.731,1.727 -9.84,2.669 -15.17,2.669 -2.533,0 -5.013,-0.224 -7.429,-0.632 1.714,7.09 3.965,13.975 6.765,20.647 7.221,17.23 17.223,32.232 30.008,45.01 12.775,12.783 27.715,22.785 44.803,30.006 17.088,7.225 35.492,10.838 55.221,10.838 23.615,0 45.076,-5.066 64.393,-15.211 19.307,-10.141 34.938,-23.684 46.887,-40.635 L 610.2,214.634 c -10.832,15.005 -24.313,26.816 -40.426,35.425 z" /></g><g
     transform="translate(0,342.99298)"
     id="g20"><path
       style="clip-rule:evenodd;fill:#00beff;fill-opacity:1;fill-rule:evenodd"
       id="path18"
       d="m 409.893,133.257 c 0,13.308 -10.779,24.093 -24.084,24.093 -13.318,0 -24.094,-10.785 -24.094,-24.093 0,-13.309 10.775,-24.085 24.094,-24.085 13.305,0 24.084,10.776 24.084,24.085 z" /></g><g
     transform="translate(0,342.99298)"
     id="g24"><path
       style="clip-rule:evenodd;fill:#3f454d;fill-rule:evenodd"
       id="path22"
       d="m 239.713,259.704 v -83.47 c 16.093,-4.046 28.673,-16.902 32.343,-33.146 h 70.584 c -0.717,-3.164 -1.108,-6.452 -1.108,-9.834 0,-3.355 0.385,-6.618 1.091,-9.759 H 272.06 C 268.394,107.246 255.812,94.392 239.713,90.349 V 23.76 H 390.618 V 4.168 H 218.038 V 90.35 c -19.227,4.832 -33.442,22.209 -33.442,42.933 0,20.723 14.216,38.113 33.442,42.948 V 279.297 H 395.62 V 259.703 H 239.713 Z M 204.782,133.287 c 0,-9.412 5.392,-17.552 13.257,-21.517 1.605,-0.81 3.314,-1.444 5.101,-1.881 0.081,-0.02 0.162,-0.037 0.242,-0.056 0.343,-0.08 0.689,-0.153 1.038,-0.218 0.123,-0.023 0.247,-0.045 0.371,-0.066 0.312,-0.054 0.627,-0.1 0.944,-0.142 0.141,-0.018 0.282,-0.038 0.424,-0.054 0.319,-0.036 0.64,-0.062 0.963,-0.086 0.132,-0.01 0.264,-0.023 0.396,-0.03 0.451,-0.025 0.905,-0.041 1.363,-0.041 0.457,0 0.91,0.015 1.36,0.041 0.133,0.007 0.265,0.021 0.398,0.03 0.322,0.023 0.643,0.05 0.961,0.086 0.141,0.016 0.282,0.035 0.422,0.054 0.316,0.042 0.63,0.087 0.942,0.141 0.125,0.021 0.25,0.043 0.374,0.066 0.346,0.065 0.69,0.138 1.031,0.217 0.083,0.019 0.166,0.037 0.248,0.057 1.784,0.437 3.491,1.071 5.095,1.88 v 0 c 4.951,2.496 8.919,6.647 11.182,11.731 0.166,0.372 0.322,0.748 0.468,1.129 0.001,0.001 0.001,0.003 0.002,0.005 0.145,0.376 0.28,0.757 0.407,1.142 0.003,0.011 0.007,0.021 0.01,0.031 0.121,0.371 0.232,0.746 0.336,1.124 0.007,0.026 0.016,0.053 0.023,0.08 0.096,0.357 0.183,0.719 0.263,1.083 0.011,0.048 0.023,0.097 0.034,0.146 0.073,0.341 0.136,0.687 0.195,1.033 0.012,0.07 0.026,0.14 0.038,0.211 0.052,0.326 0.093,0.655 0.132,0.985 0.011,0.092 0.025,0.183 0.035,0.275 0.034,0.322 0.057,0.648 0.078,0.975 0.007,0.098 0.018,0.195 0.022,0.294 0.022,0.423 0.034,0.848 0.034,1.276 0,0.429 -0.012,0.854 -0.034,1.277 -0.005,0.1 -0.016,0.199 -0.022,0.299 -0.021,0.325 -0.044,0.648 -0.078,0.97 -0.01,0.096 -0.025,0.19 -0.036,0.287 -0.039,0.326 -0.079,0.651 -0.13,0.973 -0.012,0.076 -0.028,0.15 -0.041,0.227 -0.058,0.341 -0.12,0.682 -0.192,1.019 -0.011,0.053 -0.025,0.106 -0.037,0.16 -0.08,0.359 -0.165,0.716 -0.26,1.069 -0.008,0.031 -0.018,0.062 -0.026,0.093 -0.103,0.374 -0.213,0.745 -0.333,1.111 -0.005,0.015 -0.01,0.03 -0.015,0.044 -0.125,0.381 -0.259,0.759 -0.403,1.131 -0.001,0.004 -0.003,0.009 -0.005,0.013 -0.146,0.379 -0.302,0.754 -0.467,1.125 -2.263,5.082 -6.229,9.232 -11.178,11.729 v 0 c -1.604,0.81 -3.31,1.443 -5.094,1.881 -0.083,0.021 -0.168,0.039 -0.252,0.059 -0.34,0.079 -0.682,0.151 -1.027,0.216 -0.125,0.023 -0.25,0.046 -0.375,0.067 -0.311,0.054 -0.624,0.1 -0.939,0.141 -0.142,0.019 -0.284,0.038 -0.427,0.055 -0.317,0.035 -0.636,0.062 -0.957,0.085 -0.133,0.01 -0.266,0.023 -0.4,0.03 -0.451,0.025 -0.904,0.041 -1.36,0.041 -0.458,0 -0.911,-0.016 -1.362,-0.041 -0.133,-0.007 -0.265,-0.021 -0.398,-0.029 -0.322,-0.023 -0.643,-0.051 -0.961,-0.087 -0.142,-0.016 -0.283,-0.035 -0.425,-0.054 -0.316,-0.041 -0.631,-0.088 -0.943,-0.141 -0.125,-0.021 -0.249,-0.044 -0.373,-0.067 -0.347,-0.065 -0.691,-0.138 -1.033,-0.217 -0.083,-0.02 -0.165,-0.037 -0.247,-0.058 -1.787,-0.438 -3.495,-1.072 -5.101,-1.883 v 0 c -7.867,-3.972 -13.258,-12.115 -13.258,-21.526 z" /></g></g><g
   aria-label="VO"
   id="text4509"
   style="font-size:28px;line-height:1.25;font-family:'Univers for UniS 55 Roman';-inkscape-font-specification:'Univers for UniS 55 Roman, Normal';letter-spacing:0px;word-spacing:0px;fill:#3f454d"><path
     d="m 18.071952,340.00298 32.8,98.72 34.56,-98.72 h 16.159998 l -42.559998,115.52 h -17.6 l -41.1199999,-115.52 z"
     style="font-size:160px;-inkscape-font-specification:'Univers for UniS 55 Roman, '"
     id="path289" /><path
     d="m 159.99178,458.24298 q -25.6,0 -38.88,-15.36 -13.28,-15.36 -13.28,-44.16 0,-29.12 14.24,-45.44 14.24,-16.32 39.36,-16.32 24.8,0 38.4,15.68 13.6,15.68 13.6,44 0,29.44 -13.92,45.6 -13.92,16 -39.52,16 z m 36.48,-62.56 q 0,-22.24 -8.64,-33.76 -8.64,-11.52 -26.56,-11.52 -17.92,0 -27.36,12 -9.28,11.84 -9.28,35.2 0,21.6 8.64,34.4 8.64,12.64 27.04,12.64 18.72,0 27.36,-12.8 8.8,-12.96 8.8,-36.16 z"
     style="font-size:160px;-inkscape-font-specification:'Univers for UniS 55 Roman, '"
     id="path291" /></g>




<g
   aria-label="W24"
   id="text4509-8"
   style="font-size:28px;line-height:1.25;font-family:'Univers for UniS 55 Roman';-inkscape-font-specification:'Univers for UniS 55 Roman, Normal';letter-spacing:0px;word-spacing:0px;fill:#3f454d"><path
     d="m 313.6117,339.78713 24.96,95.04 27.52,-95.04 h 19.84 l 26.08,95.84 26.24,-95.84 h 15.68 l -34.24,115.52 h -17.76 l -26.72,-98.72 -28.8,98.72 h -17.12 l -32.8,-115.52 z"
     style="font-size:160px;-inkscape-font-specification:'Univers for UniS 55 Roman, '"
     id="path294" /><path
     d="m 508.6517,416.26713 -4.48,4.48 q -4.48,4.48 -10.72,10.56 -6.24,5.92 -12,11.36 h 52.64 v 12.64 h -70.4 v -14.56 l 28.96,-28.48 q 14.4,-14.4 19.84,-22.88 5.44,-8.64 5.44,-15.84 0,-8.16 -4.64,-13.12 -4.48,-4.96 -13.12,-4.96 -18.08,0 -18.08,19.36 h -16.8 q 0,-15.04 9.44,-23.68 9.44,-8.64 24.8,-8.64 15.52,0 24.8,8.8 9.44,8.8 9.44,23.84 0,10.24 -7.04,20.16 -7.04,9.92 -18.08,20.96 z"
     style="font-size:160px;-inkscape-font-specification:'Univers for UniS 55 Roman, '"
     id="path296" /><path
     d="m 613.93166,343.14713 v 75.2 h 16.16 v 12.96 h -16.16 v 24 h -15.36 v -24 h -49.92 v -19.04 l 48,-69.12 z m -14.88,16.8 -38.24,58.4 h 38.24 z"
     style="font-size:160px;-inkscape-font-specification:'Univers for UniS 55 Roman, '"
     id="path298" /></g>




<text
   xml:space="preserve"
   id="text283"
   style="fill:black;fill-opacity:1;stroke:none;font-family:sans-serif;font-style:normal;font-weight:normal;font-size:40px;line-height:1.25;letter-spacing:0px;word-spacing:0px;white-space:pre;shape-inside:url(#rect285)" /></svg>
